<svg width="80" height="104" viewBox="0 0 80 104" fill="none" xmlns="http://www.w3.org/2000/svg">
<path d="M60.0099 73.1102C60.1116 73.1077 60.2105 73.1433 60.2874 73.21L60.3556 73.0809C60.2562 73.0001 60.1306 72.9585 60.0026 72.9641C59.9374 72.9594 59.872 72.9687 59.8108 72.9915C59.7496 73.0143 59.694 73.05 59.6478 73.0962C59.6016 73.1424 59.5659 73.198 59.5431 73.2592C59.5203 73.3204 59.5109 73.3858 59.5156 73.451V73.7261H59.187V73.8722H59.5156V75.5106H59.6861V73.8722H60.2533V73.7261H59.669V73.4656C59.669 73.2221 59.781 73.1053 60.0026 73.1053L60.0099 73.1102ZM58.0841 73.8624C58.1726 73.8608 58.2605 73.8767 58.3428 73.9091C58.4251 73.9416 58.5001 73.9899 58.5637 74.0515C58.6273 74.113 58.6781 74.1865 58.7132 74.2677C58.7482 74.3489 58.767 74.4362 58.7682 74.5246H57.4C57.4032 74.3462 57.477 74.1763 57.6052 74.0522C57.7335 73.9281 57.9057 73.8598 58.0841 73.8624V73.8624ZM58.9362 74.6099C58.9451 74.4925 58.9297 74.3747 58.8909 74.2636C58.8521 74.1525 58.7907 74.0507 58.7107 73.9644C58.6308 73.8781 58.5338 73.8093 58.426 73.7622C58.3182 73.7152 58.2018 73.6909 58.0841 73.6909C57.9665 73.6909 57.8501 73.7152 57.7423 73.7622C57.6344 73.8093 57.5375 73.8781 57.4575 73.9644C57.3775 74.0507 57.3162 74.1525 57.2774 74.2636C57.2386 74.3747 57.2231 74.4925 57.232 74.6099C57.2278 74.7312 57.2489 74.852 57.2938 74.9648C57.3388 75.0775 57.4067 75.1797 57.4932 75.2649C57.5797 75.35 57.683 75.4163 57.7964 75.4594C57.9099 75.5026 58.0311 75.5217 58.1523 75.5155C58.2792 75.5204 58.4055 75.4969 58.5222 75.4468C58.6388 75.3966 58.7428 75.3212 58.8267 75.2258L58.7269 75.1138C58.6259 75.2242 58.4948 75.3026 58.3498 75.3392C58.2048 75.3758 58.0522 75.3691 57.911 75.3199C57.7697 75.2706 57.646 75.181 57.5552 75.0622C57.4644 74.9433 57.4104 74.8005 57.4 74.6512H58.9362C58.9362 74.6342 58.9362 74.6172 58.9362 74.6026V74.6099ZM56.5333 75.5033H56.7037V73.7188H56.5333V75.5033ZM56.6185 73.283C56.6368 73.2833 56.655 73.28 56.672 73.2731C56.689 73.2663 56.7044 73.256 56.7174 73.2431C56.7303 73.2301 56.7405 73.2147 56.7474 73.1977C56.7542 73.1807 56.7576 73.1625 56.7573 73.1442C56.7573 73.1074 56.7427 73.0721 56.7166 73.0461C56.6906 73.0201 56.6553 73.0055 56.6185 73.0055C56.5813 73.0061 56.5457 73.0212 56.5194 73.0475C56.493 73.0739 56.4779 73.1094 56.4773 73.1467C56.4776 73.1649 56.4815 73.1829 56.4888 73.1996C56.4961 73.2163 56.5066 73.2314 56.5197 73.2441C56.5328 73.2567 56.5483 73.2667 56.5652 73.2734C56.5822 73.2801 56.6003 73.2833 56.6185 73.283V73.283ZM55.3842 74.1205V73.731H55.2211V75.5155H55.3915V74.5855C55.3915 74.1424 55.6349 73.8795 56.0245 73.8795H56.0659V73.7115C55.9242 73.699 55.7823 73.7313 55.66 73.8038C55.5377 73.8764 55.4412 73.9854 55.3842 74.1156V74.1205ZM53.7993 75.3694C53.6496 75.3738 53.5021 75.3334 53.3755 75.2535C53.249 75.1735 53.1491 75.0576 53.0888 74.9206C53.0285 74.7835 53.0105 74.6316 53.037 74.4843C53.0635 74.3369 53.1333 74.2009 53.2376 74.0935C53.3419 73.986 53.4759 73.9122 53.6224 73.8813C53.7689 73.8505 53.9212 73.864 54.06 73.9203C54.1987 73.9765 54.3175 74.0729 54.4012 74.197C54.4849 74.3212 54.5296 74.4675 54.5296 74.6172C54.5358 74.7157 54.5213 74.8144 54.4871 74.907C54.4528 74.9996 54.3996 75.084 54.3309 75.1549C54.2621 75.2257 54.1793 75.2814 54.0877 75.3183C53.9962 75.3553 53.8979 75.3727 53.7993 75.3694ZM53.7993 73.7115C53.6504 73.7066 53.503 73.7434 53.374 73.8178C53.2449 73.8923 53.1392 74.0013 53.0689 74.1327V72.9738H52.8985V75.5106H53.0616V75.0895C53.1305 75.2229 53.2355 75.3343 53.3646 75.4109C53.4938 75.4875 53.6418 75.5263 53.792 75.5228C54.0322 75.5228 54.2625 75.4274 54.4324 75.2576C54.6022 75.0877 54.6976 74.8574 54.6976 74.6172C54.6976 74.377 54.6022 74.1466 54.4324 73.9768C54.2625 73.8069 54.0322 73.7115 53.792 73.7115H53.7993ZM51.5156 73.8624C51.6941 73.8598 51.8663 73.9281 51.9945 74.0522C52.1228 74.1763 52.1966 74.3462 52.1998 74.5246H50.8315C50.8347 74.3462 50.9085 74.1763 51.0368 74.0522C51.165 73.9281 51.3372 73.8598 51.5156 73.8624V73.8624ZM52.3653 74.6099C52.3742 74.4925 52.3587 74.3747 52.3199 74.2636C52.2811 74.1525 52.2198 74.0507 52.1398 73.9644C52.0598 73.8781 51.9629 73.8093 51.8551 73.7622C51.7472 73.7152 51.6309 73.6909 51.5132 73.6909C51.3956 73.6909 51.2792 73.7152 51.1714 73.7622C51.0635 73.8093 50.9666 73.8781 50.8866 73.9644C50.8066 74.0507 50.7453 74.1525 50.7065 74.2636C50.6677 74.3747 50.6522 74.4925 50.6611 74.6099C50.6566 74.7311 50.6773 74.8519 50.722 74.9646C50.7666 75.0774 50.8343 75.1796 50.9206 75.2648C51.007 75.35 51.1101 75.4162 51.2234 75.4594C51.3367 75.5026 51.4578 75.5217 51.5789 75.5155C51.7058 75.5204 51.8322 75.4969 51.9488 75.4468C52.0655 75.3966 52.1695 75.3212 52.2533 75.2258L52.1535 75.1138C52.0526 75.2242 51.9215 75.3026 51.7765 75.3392C51.6314 75.3758 51.4789 75.3691 51.3376 75.3199C51.1964 75.2706 51.0727 75.181 50.9819 75.0622C50.891 74.9433 50.8371 74.8005 50.8267 74.6512H52.3629C52.3629 74.6342 52.3629 74.6172 52.3629 74.6026L52.3653 74.6099ZM48.2704 75.3597V73.2806H49.03C49.7068 73.2806 50.1426 73.7115 50.1426 74.3201C50.1426 74.9288 49.7068 75.3597 49.03 75.3597H48.2704ZM48.0975 75.518H49.0543C49.8139 75.518 50.3251 75.0189 50.3251 74.3201C50.3251 73.6214 49.8139 73.1248 49.0543 73.1248H48.1072L48.0975 75.518ZM46.6197 73.731L45.904 75.3256L45.1906 73.731H45.008L45.8114 75.5082L45.7165 75.7225C45.6069 75.9659 45.4877 76.0414 45.3221 76.0414C45.26 76.0431 45.1983 76.0314 45.1411 76.007C45.084 75.9826 45.0327 75.9462 44.991 75.9002L44.9058 76.0317C44.9607 76.0846 45.0255 76.126 45.0966 76.1536C45.1676 76.1812 45.2435 76.1943 45.3197 76.1923C45.5631 76.1923 45.7335 76.0852 45.8772 75.7565L46.7926 73.731H46.6197ZM43.9904 75.3743C43.8408 75.3787 43.6932 75.3383 43.5666 75.2583C43.4401 75.1784 43.3403 75.0624 43.2799 74.9254C43.2196 74.7884 43.2016 74.6365 43.2281 74.4892C43.2546 74.3418 43.3245 74.2057 43.4287 74.0983C43.533 73.9909 43.667 73.9171 43.8135 73.8862C43.96 73.8554 44.1123 73.8689 44.2511 73.9252C44.3898 73.9814 44.5086 74.0777 44.5923 74.2019C44.676 74.326 44.7207 74.4723 44.7208 74.622C44.7269 74.7206 44.7124 74.8193 44.6782 74.9119C44.644 75.0045 44.5908 75.0889 44.522 75.1597C44.4532 75.2306 44.3704 75.2862 44.2789 75.3232C44.1873 75.3601 44.0891 75.3776 43.9904 75.3743ZM43.9904 73.7164C43.8415 73.7114 43.6942 73.7483 43.5651 73.8227C43.436 73.8971 43.3303 74.0062 43.26 74.1375V72.9787H43.0896V75.5155H43.2527V75.0943C43.3216 75.2278 43.4266 75.3392 43.5557 75.4158C43.6849 75.4924 43.833 75.5312 43.9831 75.5277C44.2233 75.5277 44.4536 75.4323 44.6235 75.2624C44.7933 75.0926 44.8888 74.8622 44.8888 74.622C44.8888 74.3818 44.7933 74.1515 44.6235 73.9816C44.4536 73.8118 44.2233 73.7164 43.9831 73.7164" fill="white"/>
<path d="M25.1784 53.2563H22.8777V51.3938H29.5995V53.2563H27.3013V59.0554H25.1784V53.2563Z" fill="white"/>
<path d="M30.5295 51.3938H36.6939V53.2003H32.633V54.3615H36.3092V56.0365H32.633V57.2514H36.7474V59.0554H30.5295V51.3938Z" fill="white"/>
<path d="M37.5145 55.2478V55.2259C37.5077 54.6961 37.608 54.1704 37.8093 53.6803C38.0106 53.1902 38.3087 52.7458 38.6858 52.3737C39.063 52.0015 39.5113 51.7093 40.0041 51.5146C40.4968 51.3199 41.0238 51.2267 41.5534 51.2405C43.1189 51.2405 44.1243 51.8978 44.8036 52.84L43.2114 54.0768C42.7732 53.529 42.2692 53.1784 41.5364 53.1784C40.4627 53.1784 39.708 54.0865 39.708 55.204V55.2259C39.708 56.375 40.4627 57.2709 41.5364 57.2709C42.3349 57.2709 42.8048 56.9009 43.2649 56.3409L44.8645 57.4803C44.3774 58.1805 43.681 58.7082 42.8752 58.9878C42.0694 59.2674 41.1957 59.2844 40.3797 59.0364C39.5636 58.7883 38.8472 58.288 38.3332 57.6073C37.8193 56.9266 37.5344 56.1006 37.5193 55.2478" fill="white"/>
<path d="M45.7676 51.3938H47.893V54.2617H50.6172V51.3938H52.7402V59.0554H50.6172V56.1461H47.893V59.0554H45.7676V51.3938Z" fill="white"/>
<path d="M15.3938 69.4826L15.7103 69.1369C16.1762 69.6061 16.7315 69.9771 17.3432 70.228C17.955 70.4789 18.6109 70.6046 19.272 70.5977C20.9446 70.5977 22.0353 69.6871 22.0353 68.4723V68.4455C22.0353 67.311 21.3853 66.7048 19.0529 66.2203C16.7206 65.7358 15.7663 65.003 15.7663 63.6104V63.5837C15.7663 62.2033 17.0785 61.0834 18.8996 61.0834C20.094 61.0634 21.2574 61.4641 22.1862 62.2154L21.8965 62.5904C21.0429 61.8886 19.9705 61.5079 18.8655 61.5143C17.2781 61.5143 16.2288 62.4662 16.2288 63.5447V63.5715C16.2288 64.6914 16.8764 65.3122 19.2234 65.7967C21.6263 66.2836 22.4979 67.0529 22.4979 68.4066V68.4333C22.4979 69.9233 21.2124 71.0286 19.238 71.0286C17.801 71.0389 16.4176 70.4836 15.3865 69.4826" fill="white"/>
<path d="M28.2069 66.734C30.2081 66.734 31.4935 65.7967 31.4935 64.1948V64.1607C31.4935 62.5734 30.2495 61.6482 28.2604 61.6482H25.3195V66.7292L28.2069 66.734ZM24.8496 61.2246H28.3018C30.5684 61.2246 31.9537 62.3153 31.9537 64.1461V64.1753C31.9537 66.1084 30.3931 67.1723 28.1825 67.1723H25.3097V70.8874H24.8398L24.8496 61.2246Z" fill="white"/>
<path d="M39.82 67.6445L37.03 61.709L34.2546 67.6445H39.82ZM36.8231 61.1564H37.2637L41.848 70.8947H41.3367L40.0269 68.0754H34.0476L32.7208 70.8947H32.2339L36.8231 61.1564Z" fill="white"/>
<path d="M42.8267 66.0865V66.0573C42.8267 63.3378 44.8425 61.0591 47.6057 61.0591C49.4 61.0591 50.3811 61.7213 51.3209 62.5929L51.002 62.9434C50.201 62.1717 49.2199 61.4827 47.5936 61.4827C45.1371 61.4827 43.3136 63.5399 43.3136 66.0402V66.067C43.3136 68.5673 45.1638 70.6245 47.6082 70.6245C49.1127 70.6245 50.1912 69.9599 51.0458 69.0761L51.3769 69.3951C50.8957 69.9219 50.3091 70.3417 49.6553 70.6273C49.0014 70.9129 48.2949 71.0579 47.5814 71.053C44.8449 71.053 42.8291 68.8302 42.8291 66.0816" fill="white"/>
<path d="M53.3489 61.2246H60.1584V61.6531H53.8187V65.8089H59.5497V66.2374H53.8187V70.4638H60.2266V70.8923H53.3489V61.2246Z" fill="white"/>
<path d="M41.3659 17.7772C40.945 17.7772 40.5336 17.902 40.1837 18.1358C39.8338 18.3696 39.5611 18.702 39.4 19.0908C39.239 19.4796 39.1968 19.9074 39.2789 20.3202C39.361 20.7329 39.5637 21.1121 39.8613 21.4096C40.1588 21.7072 40.538 21.9099 40.9507 21.992C41.3635 22.0741 41.7913 22.0319 42.1801 21.8709C42.5689 21.7098 42.9013 21.4371 43.1351 21.0872C43.3689 20.7373 43.4937 20.3259 43.4937 19.905C43.494 19.6255 43.4392 19.3487 43.3323 19.0904C43.2255 18.8321 43.0688 18.5974 42.8712 18.3997C42.6735 18.2021 42.4388 18.0454 42.1805 17.9385C41.9222 17.8317 41.6454 17.7769 41.3659 17.7772" fill="white"/>
<path d="M35.1259 11.6689C34.705 11.6689 34.2936 11.7937 33.9437 12.0275C33.5938 12.2614 33.3211 12.5937 33.16 12.9825C32.999 13.3713 32.9568 13.7991 33.0389 14.2119C33.121 14.6246 33.3237 15.0038 33.6213 15.3014C33.9189 15.5989 34.298 15.8016 34.7108 15.8837C35.1235 15.9658 35.5513 15.9237 35.9401 15.7626C36.329 15.6016 36.6613 15.3288 36.8951 14.9789C37.1289 14.629 37.2537 14.2176 37.2537 13.7968C37.254 13.5172 37.1992 13.2404 37.0924 12.9821C36.9856 12.7238 36.8288 12.4891 36.6312 12.2915C36.4335 12.0938 36.1988 11.9371 35.9405 11.8303C35.6822 11.7234 35.4054 11.6686 35.1259 11.6689" fill="white"/>
<path d="M27.747 19.6348C27.3261 19.6348 26.9147 19.7596 26.5648 19.9934C26.2149 20.2272 25.9422 20.5595 25.7811 20.9483C25.6201 21.3371 25.5779 21.7649 25.66 22.1777C25.7421 22.5905 25.9448 22.9696 26.2424 23.2672C26.5399 23.5648 26.9191 23.7674 27.3318 23.8495C27.7446 23.9316 28.1724 23.8895 28.5612 23.7284C28.95 23.5674 29.2824 23.2947 29.5162 22.9447C29.75 22.5948 29.8748 22.1834 29.8748 21.7626C29.8748 21.1982 29.6506 20.657 29.2516 20.258C28.8525 19.8589 28.3113 19.6348 27.747 19.6348Z" fill="white"/>
<path d="M47.871 21.1539C47.4501 21.1539 47.0387 21.2787 46.6888 21.5125C46.3389 21.7463 46.0662 22.0787 45.9051 22.4675C45.7441 22.8563 45.7019 23.2841 45.784 23.6969C45.8662 24.1096 46.0688 24.4888 46.3664 24.7863C46.664 25.0839 47.0431 25.2866 47.4559 25.3687C47.8686 25.4508 48.2964 25.4086 48.6852 25.2476C49.074 25.0865 49.4064 24.8138 49.6402 24.4639C49.874 24.114 49.9988 23.7026 49.9988 23.2817C49.9988 22.7174 49.7746 22.1762 49.3756 21.7772C48.9765 21.3781 48.4353 21.1539 47.871 21.1539" fill="white"/>
<path d="M37.809 5.59229C33.8674 5.59229 30.0142 6.76112 26.7369 8.95099C23.4595 11.1409 20.9051 14.2534 19.3967 17.895C17.8883 21.5367 17.4936 25.5438 18.2626 29.4097C19.0316 33.2756 20.9297 36.8267 23.7168 39.6139C26.504 42.4011 30.0551 44.2992 33.921 45.0681C37.7869 45.8371 41.7941 45.4425 45.4357 43.934C49.0773 42.4256 52.1899 39.8712 54.3797 36.5939C56.5696 33.3165 57.7384 29.4633 57.7384 25.5217C57.7384 20.2361 55.6387 15.167 51.9013 11.4295C48.1638 7.69198 43.0946 5.59229 37.809 5.59229V5.59229ZM34.666 25.1054V16.5844C33.9707 16.4667 33.3445 16.0934 32.9103 15.5377C32.4761 14.982 32.2653 14.2841 32.3193 13.581C32.3733 12.8778 32.6882 12.2203 33.2022 11.7374C33.7162 11.2546 34.3921 10.9813 35.0972 10.9712C35.8023 10.9611 36.4857 11.215 37.0133 11.683C37.5408 12.151 37.8744 12.7992 37.9485 13.5005C38.0225 14.2018 37.8318 14.9055 37.4136 15.4734C36.9955 16.0412 36.3802 16.4323 35.6885 16.5698V24.655L39.282 28.246V40.0829H38.2594V28.6696L34.6904 25.1054H34.666ZM40.8717 40.0829V22.6951C40.1728 22.5713 39.5456 22.19 39.1139 21.6266C38.6822 21.0632 38.4772 20.3584 38.5394 19.6513C38.6015 18.9442 38.9264 18.2861 39.4498 17.8067C39.9733 17.3272 40.6573 17.0613 41.3672 17.0613C42.077 17.0613 42.7611 17.3272 43.2845 17.8067C43.8079 18.2861 44.1328 18.9442 44.195 19.6513C44.2571 20.3584 44.0522 21.0632 43.6204 21.6266C43.1887 22.19 42.5615 22.5713 41.8626 22.6951H41.8943V40.0829H40.8717ZM27.747 24.599C27.1117 24.5996 26.4946 24.3871 25.9944 23.9954C25.4942 23.6038 25.1398 23.0558 24.9879 22.4389C24.8361 21.8221 24.8955 21.1721 25.1567 20.593C25.4179 20.014 25.8658 19.5392 26.4287 19.2448C26.9916 18.9504 27.6371 18.8533 28.2617 18.9691C28.8863 19.0849 29.454 19.4068 29.8741 19.8834C30.2941 20.36 30.5421 20.9637 30.5784 21.598C30.6147 22.2322 30.4373 22.8603 30.0744 23.3817L36.8815 30.0329V40.0829H35.8589V30.4639L29.3562 24.1048C28.8836 24.425 28.3251 24.5947 27.7543 24.5917L27.747 24.599ZM43.4475 40.0756V34.2155L47.3501 30.7195V26.0695C46.6539 25.9419 46.0306 25.5586 45.6026 24.9949C45.1745 24.4312 44.9727 23.7278 45.0367 23.023C45.1008 22.3181 45.4261 21.6626 45.9487 21.1853C46.4714 20.708 47.1536 20.4434 47.8614 20.4434C48.5692 20.4434 49.2514 20.708 49.774 21.1853C50.2967 21.6626 50.622 22.3181 50.686 23.023C50.7501 23.7278 50.5483 24.4312 50.1202 24.9949C49.6922 25.5586 49.0688 25.9419 48.3726 26.0695V31.1675L44.4554 34.6562V40.0829L43.4475 40.0756Z" fill="white"/>
</svg>
